<svg width="15" height="15" viewBox="0 0 15 15" fill="none" xmlns="http://www.w3.org/2000/svg">
<path fill-rule="evenodd" clip-rule="evenodd" d="M2.31343 0L12.3302 0C12.713 0 13.032 0.0615921 13.4148 0.246369C13.8614 0.431146 14.1166 0.739108 14.2442 0.985477C14.2442 0.985477 14.2442 1.04707 14.308 1.04707C14.4994 1.35503 14.627 1.72458 14.627 2.15573C14.627 2.52528 14.5632 2.89484 14.308 3.26439L7.99172 13.7351C7.86412 13.9815 7.60892 14.1046 7.28991 14.1046C7.03471 14.1046 6.77951 13.9815 6.5881 13.7351L0.399403 3.26439C0.271801 3.01802 0.0165966 2.71006 0.0165966 2.21732C-0.0472045 1.78618 0.0803973 1.41662 0.2718 1.04707C0.463204 0.677516 0.782209 0.369554 1.22882 0.246369C1.61162 -2.36447e-07 2.05823 0 2.31343 0ZM6.5243 1.47821H2.31343C2.05823 1.47821 1.93063 1.47822 1.86683 1.53981C1.73922 1.6014 1.67542 1.66299 1.61162 1.78618C1.54782 1.84777 1.54782 1.97095 1.54782 2.09414C1.54782 2.15573 1.61162 2.21732 1.73922 2.46369L6.5243 10.4707V1.47821ZM8.05553 1.47821V10.5323L12.9044 2.46369C12.9682 2.34051 12.9682 2.21732 12.9682 2.09414C12.9682 1.97095 12.9682 1.84777 12.9044 1.78618C12.8406 1.72458 12.8406 1.66299 12.7768 1.66299L12.713 1.6014C12.5854 1.53981 12.4578 1.53981 12.2664 1.53981H8.05553V1.47821Z" fill="#61BAEB"/>
</svg>
