<svg width="12" height="10" viewBox="0 0 12 10" fill="none" xmlns="http://www.w3.org/2000/svg">
<path d="M7.9784 4.70868H9.98158C10.1818 4.70465 10.3772 4.77097 10.5336 4.8961C10.69 5.02123 10.7976 5.19726 10.8376 5.39353L11.5567 8.98897H6.42038L7.12235 5.39353C7.16237 5.19726 7.26995 5.02123 7.42637 4.8961C7.58279 4.77097 7.77813 4.70465 7.9784 4.70868ZM7.9784 4.70868L4.0063 4.70868M8.56052 4.70868L7.84143 1.11324C7.80141 0.91697 7.69383 0.740946 7.53741 0.615812C7.38099 0.490678 7.18565 0.424358 6.98538 0.428397H4.9822C4.78193 0.424358 4.58659 0.490678 4.43017 0.615812C4.27375 0.740946 4.16617 0.91697 4.12615 1.11324L3.42418 4.70868M4.84523 5.39353C4.80521 5.19726 4.69763 5.02123 4.54121 4.8961C4.38479 4.77097 4.18945 4.70465 3.98918 4.70868H1.986C1.78573 4.70465 1.59039 4.77097 1.43397 4.8961C1.27755 5.02123 1.16997 5.19726 1.12995 5.39353L0.427979 8.98897H5.56432L4.84523 5.39353Z" stroke="#C37CE2" stroke-width="0.856057" stroke-linecap="round" stroke-linejoin="round"/>
</svg>
