<svg width="102" height="79" viewBox="0 0 102 79" fill="none" xmlns="http://www.w3.org/2000/svg">
<path d="M68.644 39.2986H86.644C88.4436 39.2623 90.1989 39.8588 91.6044 40.9844C93.01 42.1099 93.9767 43.6931 94.3363 45.4585L100.798 77.7978H54.644L60.9517 45.4585C61.3113 43.6931 62.278 42.1099 63.6836 40.9844C65.0891 39.8588 66.8444 39.2623 68.644 39.2986ZM68.644 39.2986L32.9517 39.2986M73.8748 39.2986L67.4132 6.95929C67.0536 5.19391 66.0869 3.61065 64.6814 2.48513C63.2758 1.35961 61.5205 0.763091 59.7209 0.799418H41.7209C39.9213 0.763091 38.166 1.35961 36.7605 2.48513C35.355 3.61065 34.3882 5.19391 34.0286 6.95929L27.7209 39.2986M40.4902 45.4585C40.1305 43.6931 39.1638 42.1099 37.7583 40.9844C36.3528 39.8588 34.5974 39.2623 32.7978 39.2986H14.7979C12.9983 39.2623 11.2429 39.8588 9.83741 40.9844C8.43188 42.1099 7.46517 43.6931 7.10554 45.4585L0.797852 77.7978H46.9517L40.4902 45.4585Z" stroke="#C37CE2" stroke-width="1.59569" stroke-linecap="round" stroke-linejoin="round"/>
</svg>
