<svg width="27" height="27" viewBox="0 0 27 27" fill="none" xmlns="http://www.w3.org/2000/svg">
<path d="M17.9169 14.0196H22.3719C22.8173 14.0106 23.2518 14.1581 23.5996 14.4364C23.9475 14.7147 24.1868 15.1062 24.2758 15.5427L25.875 23.5388H14.4519L16.0131 15.5427C16.1021 15.1062 16.3413 14.7147 16.6892 14.4364C17.0371 14.1581 17.4715 14.0106 17.9169 14.0196ZM17.9169 14.0196L9.08308 14.0196M19.2115 14.0196L17.6123 6.02346C17.5233 5.58696 17.284 5.19549 16.9362 4.91719C16.5883 4.6389 16.1539 4.49141 15.7085 4.50039H11.2535C10.8081 4.49141 10.3736 4.6389 10.0258 4.91719C9.67788 5.19549 9.43862 5.58696 9.34962 6.02346L7.78846 14.0196M10.9488 15.5427C10.8598 15.1062 10.6206 14.7147 10.2727 14.4364C9.92484 14.1581 9.4904 14.0106 9.045 14.0196H4.59C4.1446 14.0106 3.71016 14.1581 3.36229 14.4364C3.01442 14.7147 2.77516 15.1062 2.68615 15.5427L1.125 23.5388H12.5481L10.9488 15.5427Z" stroke="white" stroke-width="1.375" stroke-linecap="round" stroke-linejoin="round"/>
</svg>
