<svg width="20" height="20" viewBox="0 0 20 20" fill="none" xmlns="http://www.w3.org/2000/svg">
<path d="M13.2123 9.53859H16.4523C16.7762 9.53206 17.0922 9.63933 17.3452 9.84172C17.5982 10.0441 17.7722 10.3288 17.8369 10.6463L19 16.4617H10.6923L11.8277 10.6463C11.8924 10.3288 12.0664 10.0441 12.3194 9.84172C12.5724 9.63933 12.8884 9.53206 13.2123 9.53859ZM13.2123 9.53859L6.78769 9.53859M14.1538 9.53859L12.9908 3.72321C12.926 3.40575 12.752 3.12104 12.499 2.91865C12.246 2.71625 11.9301 2.60898 11.6062 2.61552H8.36615C8.04223 2.60898 7.72627 2.71625 7.47327 2.91865C7.22028 3.12104 7.04627 3.40575 6.98154 3.72321L5.84615 9.53859M8.14462 10.6463C8.07988 10.3288 7.90587 10.0441 7.65288 9.84172C7.39989 9.63933 7.08393 9.53206 6.76 9.53859H3.52C3.19607 9.53206 2.88011 9.63933 2.62712 9.84172C2.37413 10.0441 2.20012 10.3288 2.13538 10.6463L1 16.4617H9.30769L8.14462 10.6463Z" stroke="currentColor" stroke-width="1.38462" stroke-linecap="round" stroke-linejoin="round"/>
</svg>
