<svg width="23" height="23" viewBox="0 0 23 23" fill="none" xmlns="http://www.w3.org/2000/svg">
<path d="M5.65222 12.112C6.09816 12.112 6.45967 11.7505 6.45967 11.3045C6.45967 10.8586 6.09816 10.4971 5.65222 10.4971C5.20627 10.4971 4.84477 10.8586 4.84477 11.3045C4.84477 11.7505 5.20627 12.112 5.65222 12.112Z" stroke="white" stroke-width="1.61491" stroke-linecap="round" stroke-linejoin="round"/>
<path d="M10.9007 12.112C11.3466 12.112 11.7081 11.7505 11.7081 11.3045C11.7081 10.8586 11.3466 10.4971 10.9007 10.4971C10.4547 10.4971 10.0932 10.8586 10.0932 11.3045C10.0932 11.7505 10.4547 12.112 10.9007 12.112Z" stroke="white" stroke-width="1.61491" stroke-linecap="round" stroke-linejoin="round"/>
<path d="M16.1491 12.112C16.5951 12.112 16.9566 11.7505 16.9566 11.3045C16.9566 10.8586 16.5951 10.4971 16.1491 10.4971C15.7032 10.4971 15.3417 10.8586 15.3417 11.3045C15.3417 11.7505 15.7032 12.112 16.1491 12.112Z" stroke="white" stroke-width="1.61491" stroke-linecap="round" stroke-linejoin="round"/>
<path d="M11.3044 0.807619C9.40565 0.80821 7.54262 1.32381 5.91374 2.29949C4.28486 3.27518 2.95112 4.67441 2.05458 6.34817C1.15805 8.02192 0.732291 9.90751 0.822658 11.8041C0.913025 13.7007 1.51613 15.5373 2.56774 17.1182L0.807495 21.8014L6.70191 20.7356C8.12126 21.4292 9.67887 21.7935 11.2586 21.8013C12.8384 21.8091 14.3995 21.4603 15.8256 20.7808C17.2518 20.1013 18.5062 19.1086 19.4953 17.8768C20.4844 16.6451 21.1828 15.2059 21.5383 13.6667C21.8938 12.1274 21.8972 10.5278 21.5485 8.98701C21.1997 7.44623 20.5076 6.00405 19.5239 4.76796C18.5402 3.53188 17.2901 2.53377 15.8669 1.84806C14.4438 1.16234 12.8842 0.806686 11.3044 0.807619Z" stroke="white" stroke-width="1.61491" stroke-linecap="round" stroke-linejoin="round"/>
</svg>
