<svg width="23" height="23" viewBox="0 0 23 23" fill="none" xmlns="http://www.w3.org/2000/svg">
<path d="M8.67307 8.67319C8.67307 8.20536 8.8118 7.74804 9.07171 7.35905C9.33162 6.97007 9.70104 6.66689 10.1333 6.48786C10.5655 6.30883 11.0411 6.26199 11.4999 6.35326C11.9588 6.44452 12.3802 6.66981 12.711 7.00061C13.0418 7.33142 13.2671 7.75289 13.3584 8.21173C13.4497 8.67057 13.4028 9.14617 13.2238 9.57838C13.0448 10.0106 12.7416 10.38 12.3526 10.6399C11.9636 10.8998 11.5063 11.0386 11.0385 11.0386V12.6155M21.2885 11.0386C21.2885 16.6995 16.6994 21.2886 11.0385 21.2886C5.37753 21.2886 0.788452 16.6995 0.788452 11.0386C0.788452 5.37766 5.37753 0.788574 11.0385 0.788574C16.6994 0.788574 21.2885 5.37766 21.2885 11.0386ZM11.0385 16.5578C10.8207 16.5578 10.6442 16.3813 10.6442 16.1636C10.6442 15.9458 10.8207 15.7693 11.0385 15.7693C11.2562 15.7693 11.4327 15.9458 11.4327 16.1636C11.4327 16.3813 11.2562 16.5578 11.0385 16.5578Z" stroke="white" stroke-width="1.57692" stroke-linecap="round" stroke-linejoin="round"/>
</svg>
