<svg width="22" height="22" viewBox="0 0 22 22" fill="none" xmlns="http://www.w3.org/2000/svg">
<path d="M0.775879 10.8617C0.775879 12.8565 1.3674 14.8065 2.47565 16.4651C3.58389 18.1237 5.15908 19.4164 7.00203 20.1798C8.84497 20.9432 10.8729 21.1429 12.8294 20.7538C14.7858 20.3646 16.5829 19.404 17.9935 17.9935C19.404 16.5829 20.3646 14.7858 20.7537 12.8294C21.1429 10.8729 20.9432 8.84498 20.1798 7.00204C19.4164 5.15909 18.1237 3.5839 16.4651 2.47565C14.8065 1.36741 12.8565 0.775886 10.8617 0.775886C7.97247 0.772688 5.19338 1.88432 3.10338 3.87922M3.10338 3.87922L3.87921 0.775886M3.10338 3.87922L6.20671 4.65505M10.8617 5.43088V11.6375L6.82738 13.6547" stroke="white" stroke-width="1.55167" stroke-linecap="round" stroke-linejoin="round"/>
</svg>
