<svg width="20" height="20" viewBox="0 0 20 20" fill="none" xmlns="http://www.w3.org/2000/svg">
<path d="M1 11.4456H18.5417M9.77087 10.0962V12.7949M13.819 6.0481C13.819 4.97447 13.3925 3.94483 12.6333 3.18566C11.8741 2.42649 10.8445 2 9.77087 2C8.69725 2 7.6676 2.42649 6.90844 3.18566C6.14927 3.94483 5.72278 4.97447 5.72278 6.0481M2.34937 6.0481H17.1924C17.9376 6.0481 18.5417 6.65223 18.5417 7.39746V16.843C18.5417 17.5883 17.9376 18.1924 17.1924 18.1924H2.34937C1.60413 18.1924 1 17.5883 1 16.843V7.39746C1 6.65223 1.60413 6.0481 2.34937 6.0481Z" stroke="currentColor" stroke-width="1.34937" stroke-linecap="round" stroke-linejoin="round"/>
</svg>
