<svg width="16" height="16" viewBox="0 0 16 16" fill="none" xmlns="http://www.w3.org/2000/svg">
<path d="M10.4856 11.5674V13.7308C10.4856 14.0177 10.3716 14.2929 10.1688 14.4957C9.96592 14.6986 9.69078 14.8126 9.40388 14.8126H1.83174C1.54484 14.8126 1.2697 14.6986 1.06683 14.4957C0.863968 14.2929 0.75 14.0177 0.75 13.7308V1.83174C0.75 1.54484 0.863968 1.2697 1.06683 1.06683C1.2697 0.863968 1.54484 0.75 1.83174 0.75H9.40388C9.69078 0.75 9.96592 0.863968 10.1688 1.06683C10.3716 1.2697 10.4856 1.54484 10.4856 1.83174V3.99521M7.24041 7.78128H14.8126M14.8126 7.78128L12.6491 5.61781M14.8126 7.78128L12.6491 9.94475" stroke="white" stroke-width="1.5" stroke-linecap="round" stroke-linejoin="round"/>
</svg>
