<svg width="20" height="20" viewBox="0 0 20 20" fill="none" xmlns="http://www.w3.org/2000/svg">
<g clip-path="url(#clip0_2274_1293)">
<path d="M2.38471 11.755V17.8047C2.38471 17.983 2.45553 18.154 2.58159 18.2801C2.70765 18.4061 2.87862 18.4769 3.0569 18.4769H16.5007C16.679 18.4769 16.8499 18.4061 16.976 18.2801C17.1021 18.154 17.1729 17.983 17.1729 17.8047V11.755M11.1232 11.755V18.4769M2.38471 13.7716H11.1232M18.5173 5.70533L16.5007 1H3.0569L1.04033 5.70533H18.5173ZM18.5173 5.70533V7.04971C18.5173 7.76281 18.234 8.44671 17.7297 8.95095C17.2255 9.45519 16.5416 9.73847 15.8285 9.73847H15.4924C14.7793 9.73847 14.0954 9.45519 13.5912 8.95095C13.0869 8.44671 12.8037 7.76281 12.8037 7.04971M6.75394 5.70533V7.04971M6.75394 7.04971C6.75394 7.76281 6.47067 8.44671 5.96642 8.95095C5.46218 9.45519 4.77829 9.73847 4.06519 9.73847H3.68876C2.97566 9.73847 2.29176 9.45519 1.78752 8.95095C1.28328 8.44671 1 7.76281 1 7.04971V5.70533M6.75394 7.04971C6.75394 7.76281 7.03722 8.44671 7.54146 8.95095C8.0457 9.45519 8.7296 9.73847 9.4427 9.73847H10.1149C10.828 9.73847 11.5119 9.45519 12.0161 8.95095C12.5204 8.44671 12.8037 7.76281 12.8037 7.04971M12.8037 5.70533V7.04971" stroke="currentColor" stroke-width="1.34438" stroke-linecap="round" stroke-linejoin="round"/>
</g>
<defs>
<clipPath id="clip0_2274_1293">
<rect width="20" height="20" fill="currentColor"/>
</clipPath>
</defs>
</svg>
