<svg width="20" height="17" viewBox="0 0 20 17" fill="none" xmlns="http://www.w3.org/2000/svg">
<path d="M8.97231 0.691895L5.59536 5.92341L9.69199 15.819L13.8162 5.92341L10.4531 0.691895M0.723656 5.92345H18.6603M14.7296 0.705748H4.65414C4.42186 0.712126 4.19433 0.773079 3.98997 0.883677C3.7856 0.994275 3.61013 1.15141 3.47774 1.34239L0.958868 4.83006C0.77183 5.09437 0.678421 5.41357 0.693465 5.73702C0.708508 6.06046 0.831143 6.36961 1.04191 6.61542L8.59854 15.3208C8.72791 15.4875 8.89368 15.6224 9.08318 15.7152C9.27268 15.808 9.48089 15.8562 9.69189 15.8562C9.9029 15.8562 10.1111 15.808 10.3006 15.7152C10.4901 15.6224 10.6559 15.4875 10.7853 15.3208L18.3419 6.61542C18.5526 6.36961 18.6753 6.06046 18.6903 5.73702C18.7054 5.41357 18.612 5.09437 18.4249 4.83006L15.906 1.34239C15.7737 1.15141 15.5982 0.994275 15.3938 0.883677C15.1895 0.773079 14.9619 0.712126 14.7296 0.705748Z" stroke="currentColor" stroke-width="1.384" stroke-linecap="round" stroke-linejoin="round"/>
</svg>
