<svg width="17" height="16" viewBox="0 0 17 16" fill="none" xmlns="http://www.w3.org/2000/svg">
<path fill-rule="evenodd" clip-rule="evenodd" d="M2.55287 0H13.6063C14.0288 0 14.3808 0.0679666 14.8032 0.271867C15.296 0.475768 15.5776 0.815603 15.7185 1.08747C15.7185 1.08747 15.7185 1.15544 15.7889 1.15544C16.0001 1.49527 16.1409 1.90307 16.1409 2.37884C16.1409 2.78664 16.0705 3.19444 15.7889 3.60225L8.81884 15.1566C8.67803 15.4285 8.39642 15.5644 8.04439 15.5644C7.76278 15.5644 7.48116 15.4285 7.26995 15.1566L0.44074 3.60225C0.299931 3.33038 0.0183142 2.99054 0.0183142 2.44681C-0.05209 1.97104 0.0887182 1.56324 0.299931 1.15544C0.511143 0.747636 0.863164 0.407801 1.35599 0.271867C1.77842 -2.60919e-07 2.27125 0 2.55287 0ZM7.19954 1.63121H2.55287C2.27125 1.63121 2.13044 1.63121 2.06004 1.69917C1.91923 1.76714 1.84882 1.83511 1.77842 1.97104C1.70802 2.03901 1.70801 2.17494 1.70801 2.31087C1.70801 2.37884 1.77842 2.44681 1.91923 2.71868L7.19954 11.5544V1.63121ZM8.88925 1.63121V11.6223L14.24 2.71868C14.3104 2.58274 14.3104 2.44681 14.3104 2.31087C14.3104 2.17494 14.3104 2.03901 14.24 1.97104C14.1696 1.90307 14.1696 1.83511 14.0992 1.83511L14.0288 1.76714C13.8879 1.69917 13.7471 1.69917 13.5359 1.69917H8.88925V1.63121Z" fill="#61BAEB"/>
</svg>
