<svg width="16" height="16" viewBox="0 0 16 16" fill="none" xmlns="http://www.w3.org/2000/svg">
<path d="M13.19 8.32038V6.15691C13.19 5.87001 13.076 5.59487 12.8731 5.392C12.6703 5.18914 12.3951 5.07517 12.1082 5.07517H1.83174C1.54484 5.07517 1.2697 5.18914 1.06683 5.392C0.863968 5.59487 0.75 5.87001 0.75 6.15691V13.7291C0.75 14.0159 0.863968 14.2911 1.06683 14.494C1.2697 14.6968 1.54484 14.8108 1.83174 14.8108H12.1082C12.3951 14.8108 12.6703 14.6968 12.8731 14.494C13.076 14.2911 13.19 14.0159 13.19 13.7291V11.0247M4.363 2.37083L10.4964 0.769864C10.5654 0.750445 10.6375 0.745192 10.7085 0.754422C10.7795 0.763652 10.8479 0.787173 10.9096 0.823567C10.9713 0.859961 11.0249 0.908472 11.0673 0.966172C11.1097 1.02387 11.14 1.08957 11.1563 1.15929L11.4592 2.37083M11.5674 8.32038H14.2717C14.5704 8.32038 14.8126 8.56253 14.8126 8.86125V10.4838C14.8126 10.7826 14.5704 11.0247 14.2717 11.0247H11.5674C11.2686 11.0247 11.0265 10.7826 11.0265 10.4838V8.86125C11.0265 8.56253 11.2686 8.32038 11.5674 8.32038Z" stroke="#000001" stroke-width="1.5" stroke-linecap="round" stroke-linejoin="round"/>
</svg>
